<?xml version="1.0" encoding="UTF-8" standalone="no"?>
<!-- Created with Inkscape (http://www.inkscape.org/) -->

<svg
   width="18.4"
   height="18.4"
   viewBox="0 0 4.8683331 4.8683332"
   version="1.1"
   id="svg5"
   xml:space="preserve"
   inkscape:version="1.2 (dc2aedaf03, 2022-05-15)"
   sodipodi:docname="settings.svg"
   xmlns:inkscape="http://www.inkscape.org/namespaces/inkscape"
   xmlns:sodipodi="http://sodipodi.sourceforge.net/DTD/sodipodi-0.dtd"
   xmlns="http://www.w3.org/2000/svg"
   xmlns:svg="http://www.w3.org/2000/svg"><sodipodi:namedview
     id="namedview7"
     pagecolor="#ffffff"
     bordercolor="#000000"
     borderopacity="0.25"
     inkscape:showpageshadow="2"
     inkscape:pageopacity="0.0"
     inkscape:pagecheckerboard="0"
     inkscape:deskcolor="#d1d1d1"
     inkscape:document-units="mm"
     showgrid="false"
     inkscape:zoom="18.98428"
     inkscape:cx="9.218153"
     inkscape:cy="9.218153"
     inkscape:window-width="1366"
     inkscape:window-height="697"
     inkscape:window-x="-8"
     inkscape:window-y="-8"
     inkscape:window-maximized="1"
     inkscape:current-layer="layer1" /><defs
     id="defs2" /><g
     inkscape:label="Camada 1"
     inkscape:groupmode="layer"
     id="layer1"><path
       id="path4996"
       style="fill:#000000;stroke-width:0.260654"
       d="M 2.2348647,0.38433328 2.1371678,1.0455698 C 1.8186756,1.1022473 1.5392624,1.2722795 1.3340987,1.4989892 L 0.69516062,1.2344945 0.49585881,1.5745589 1.0566393,1.971301 a 1.4711865,1.4224778 0 0 0 0,0.9257312 L 0.49390484,3.2937742 0.69320666,3.6149462 1.3380066,3.3504515 c 0.2032097,0.2267097 0.480669,0.396742 0.7972071,0.4534194 l 0.097697,0.680129 h 0.4025115 l 0.097697,-0.680129 C 3.0496573,3.7471935 3.3271166,3.5771612 3.5322801,3.3504515 l 0.6448001,0.2644947 0.197348,-0.321172 -0.5607808,-0.396742 c 0.1055125,-0.3022796 0.1055125,-0.6234515 0,-0.9257312 L 4.3724742,1.5745589 4.1731724,1.2344945 3.5342342,1.4989892 A 1.4367262,1.3891585 0 0 0 2.7311652,1.0455698 L 2.6334679,0.38433328 Z M 1.9455053,4.7624806 c -0.060201,0 -0.111549,-0.051359 -0.1204021,-0.1027198 L 1.7365723,4.0434424 C 1.5842992,3.9920825 1.4550441,3.9064828 1.3311008,3.820883 L 0.73263196,4.0434424 c -0.0531183,0.034239 -0.11863142,0 -0.14696132,-0.051359 L 0.1058332,3.2045646 A 0,0 0 0 0 0.1341631,3.050485 L 0.64055979,2.6567261 0.6246243,2.4341665 0.64055979,2.2116072 0.13416309,1.8178482 A 0,0 0 0 0 0.10583319,1.6808885 L 0.58567064,0.87625061 c 0.0283299,-0.0513596 0.0938424,-0.0684799 0.14696132,-0.0513596 L 1.3311008,1.0474502 C 1.4550441,0.96185039 1.5842992,0.89337062 1.7365723,0.82489077 L 1.8251033,0.20857238 C 1.8339533,0.15721273 1.8853043,0.1058526 1.9455054,0.1058526 h 0.9614455 c 0.058431,0 0.1097783,0.0513596 0.1186314,0.10271978 l 0.090302,0.61631839 C 3.2663868,0.89337067 3.3956419,0.96185035 3.5213558,1.0474502 L 4.1198241,0.82489077 c 0.051348,-0.0171202 0.1168608,0 0.1451906,0.0513596 L 4.7466228,1.6808883 c 0.030101,0.051359 0.015936,0.1027198 -0.030101,0.1369597 l -0.5063967,0.393759 0.017706,0.2225593 -0.017706,0.2396794 0.5063967,0.3766391 c 0.046036,0.03424 0.060201,0.1027197 0.030101,0.1540796 L 4.2650147,3.9920825 c -0.02833,0.051359 -0.093842,0.0856 -0.1451906,0.051359 L 3.5213552,3.820883 c -0.1257139,0.0856 -0.254969,0.1711995 -0.4054715,0.2225594 l -0.090302,0.6163184 c -0.00885,0.051359 -0.060201,0.1027198 -0.1186314,0.1027198 H 1.9455053 M 2.4332812,1.9719278 A 0.4804172,0.46451134 0 0 0 1.9534438,2.4341665 0.4804172,0.46451134 0 0 0 2.4332812,2.8964054 0.4804172,0.46451134 0 0 0 2.9148893,2.4341665 0.4804172,0.46451134 0 0 0 2.4332812,1.9719278 m 8.66e-5,-0.3718564 A 0.86689755,0.83819593 0 0 1 3.3008167,2.4341665 0.86689755,0.83819593 0 0 1 2.4333678,3.2682618 0.86689755,0.83819593 0 0 1 1.5675163,2.4341665 0.86689755,0.83819593 0 0 1 2.4333678,1.6000714" /></g></svg>
