<?xml version="1.0" encoding="UTF-8" standalone="no"?>
<svg
   width="18"
   height="18"
   viewBox="0 0 18 18"
   version="1.1"
   id="svg206"
   sodipodi:docname="wallet.svg"
   inkscape:version="1.2 (dc2aedaf03, 2022-05-15)"
   xmlns:inkscape="http://www.inkscape.org/namespaces/inkscape"
   xmlns:sodipodi="http://sodipodi.sourceforge.net/DTD/sodipodi-0.dtd"
   xmlns="http://www.w3.org/2000/svg"
   xmlns:svg="http://www.w3.org/2000/svg">
  <defs
     id="defs210" />
  <sodipodi:namedview
     id="namedview208"
     pagecolor="#ffffff"
     bordercolor="#000000"
     borderopacity="0.25"
     inkscape:showpageshadow="2"
     inkscape:pageopacity="0.0"
     inkscape:pagecheckerboard="0"
     inkscape:deskcolor="#d1d1d1"
     showgrid="false"
     inkscape:zoom="19.406153"
     inkscape:cx="7.9356275"
     inkscape:cy="9.0177585"
     inkscape:window-width="1366"
     inkscape:window-height="697"
     inkscape:window-x="-8"
     inkscape:window-y="-8"
     inkscape:window-maximized="1"
     inkscape:current-layer="svg206" />
  <path
     fill="currentColor"
     d="m 12.111111,12.111111 c 0.737778,0 1.333333,-0.595555 1.333333,-1.333333 0,-0.737778 -0.595555,-1.333334 -1.333333,-1.333334 -0.737778,0 -1.333333,0.595556 -1.333333,1.333334 0,0.737778 0.595555,1.333333 1.333333,1.333333 M 4.5555556,1 h 8.8888884 a 1.7777778,1.7777778 0 0 1 1.777778,1.7777778 V 4.5555556 A 1.7777778,1.7777778 0 0 1 17,6.3333333 V 15.222222 C 17,16.208889 16.208889,17 15.222222,17 H 4.5555556 C 2.5911111,17 1,15.408889 1,13.444444 V 4.5555556 C 1,2.5911111 2.5911111,1 4.5555556,1 M 13.444444,4.5555556 V 2.7777778 H 4.5555556 c -0.9777778,0 -1.7777778,0.8 -1.7777778,1.7777778 v 0.48 a 3.5466667,3.5466667 0 0 1 1.7777778,-0.48 H 13.444444 M 2.7777778,13.444444 a 1.7777778,1.7777778 0 0 0 1.7777778,1.777778 H 15.222222 V 6.3333333 H 4.5555556 c -0.9777778,0 -1.7777778,0.8 -1.7777778,1.7777777 z"
     id="path204"
     style="stroke-width:0;stroke-dasharray:none" />
</svg>
